<svg xmlns="http://www.w3.org/2000/svg" viewBox="0 0 1024 1024" width="1024" height="1024"><title>Settld icon: pixel S with faded echo and check stamp</title><rect width="1024" height="1024" rx="230" fill="#EE6A4B"/><path transform="translate(36 36) translate(304.00 760.00) scale(0.74667 -0.74667)" d="M0 225H150V150H375V300H75V375H0V675H75V750H450V675H525V525H375V600H150V450H450V375H525V75H450V0H75V75H0Z" fill="#0E0E0E" opacity="0.22"/><path transform="translate(274.00 730.00) scale(0.74667 -0.74667)" d="M0 225H150V150H375V300H75V375H0V675H75V750H450V675H525V525H375V600H150V450H450V375H525V75H450V0H75V75H0Z" fill="#0E0E0E" /><circle cx="770" cy="780" r="118" fill="#FFFFFF"/><polyline points="712,782 752,822 828,744" fill="none" stroke="#0E0E0E" stroke-width="34" stroke-linecap="round" stroke-linejoin="round"/></svg>